<?xml version="1.0" encoding="utf-8"?>
<!-- Generator: Adobe Illustrator 22.0.1, SVG Export Plug-In . SVG Version: 6.00 Build 0)  -->
<svg version="1.1" id="Layer_1" xmlns="http://www.w3.org/2000/svg" xmlns:xlink="http://www.w3.org/1999/xlink" x="0px" y="0px"
	 viewBox="0 0 199.9 200" style="enable-background:new 0 0 199.9 200;" xml:space="preserve">
<style type="text/css">
	.st0{fill:none;}
	.st1{fill:#009BBD;}
	.st2{fill:#DEDEDD;}
	.st3{fill:#191A4F;}
	.st4{fill:#B32B76;}
</style>
<title>Anti-slavery-icons-Partnership-Checklist</title>
<rect class="st0" width="199.9" height="200"/>
<path class="st1" d="M154.8,105.1c-0.8,0.8-0.8,2,0,2.8c0.8,0.8,2,0.8,2.8,0c0.8-0.8,0.8-2,0-2.8l0,0
	C156.8,104.3,155.6,104.3,154.8,105.1 M159,109.3c-1.6,1.6-4.1,1.6-5.7,0c-1.6-1.6-1.6-4.1,0-5.7c1.6-1.6,4.1-1.6,5.7,0l0,0
	C160.5,105.2,160.5,107.7,159,109.3"/>
<path class="st1" d="M71.4,81.2c-0.8,0.8-0.8,2,0,2.8c0.8,0.8,2,0.8,2.8,0c0.8-0.8,0.8-2,0-2.8l0,0C73.5,80.5,72.2,80.5,71.4,81.2
	 M75.6,85.4c-1.6,1.6-4.1,1.6-5.7,0s-1.6-4.1,0-5.7c1.6-1.6,4.1-1.6,5.7,0l0,0C77.2,81.3,77.2,83.8,75.6,85.4"/>
<polygon class="st2" points="144.9,54.3 146.6,53.3 147.6,55 145.9,56 144.9,54.3 "/>
<polygon class="st2" points="150.9,64.6 152.6,63.6 153.6,65.3 151.9,66.3 150.9,64.6 "/>
<polygon class="st2" points="142.7,57.2 143.7,55.5 145.4,56.5 144.5,58.2 142.7,57.2 "/>
<polygon class="st2" points="153,63.2 154,61.4 155.8,62.4 154.8,64.1 153,63.2 "/>
<polygon class="st2" points="142.3,58.8 144.3,58.8 144.3,60.8 142.3,60.8 142.3,58.8 "/>
<polygon class="st2" points="154.2,58.8 156.2,58.8 156.2,60.8 154.2,60.8 154.2,58.8 "/>
<polygon class="st2" points="142.7,62.4 144.5,61.4 145.4,63.2 143.7,64.1 142.7,62.4 "/>
<polygon class="st2" points="153,56.5 154.8,55.5 155.8,57.2 154,58.2 153,56.5 "/>
<polygon class="st2" points="144.9,65.3 145.9,63.6 147.6,64.6 146.6,66.3 144.9,65.3 "/>
<polygon class="st2" points="150.9,55 151.9,53.3 153.6,54.3 152.6,56 150.9,55 "/>
<polygon class="st2" points="148.2,64.8 150.2,64.8 150.2,66.8 148.2,66.8 148.2,64.8 "/>
<polygon class="st2" points="148.2,52.9 150.2,52.9 150.2,54.8 148.2,54.8 148.2,52.9 "/>
<polygon class="st2" points="138.3,156.1 59,156.1 59,47.9 60.9,47.9 60.9,154.1 138.3,154.1 138.3,156.1 "/>
<polygon class="st2" points="87.7,41 87.7,47.9 88.7,47.9 88.7,52.9 112.5,52.9 112.5,47.9 113.5,47.9 113.5,41 87.7,41 "/>
<polygon class="st1" points="138.2,140.2 138.2,156.1 59,156.1 59,48.9 84.7,48.9 84.7,43 51,43 51,48.9 51,158 51,164 59,164 
	138.2,164 146.1,164 146.1,158 146.1,140.2 138.2,140.2 "/>
<polygon class="st1" points="132.4,48.9 141.3,48.9 141.3,123.3 146.1,123.3 146.1,48.9 146.1,43 132.4,43 128.3,43 116.4,43 
	116.4,48.9 128.3,48.9 132.4,48.9 "/>
<polygon class="st3" points="136.6,158 57,158 57,50.5 60.5,46.9 64.9,46.9 64.9,48.9 61.3,48.9 59,51.3 59,156.1 135.8,156.1 
	138.2,153.7 138.2,140.2 140.2,140.2 140.2,154.5 136.6,158 "/>
<path class="st3" d="M94.9,148.1h59.3c1.1,0,2-0.9,2-2s-0.9-2-2-2H94.7l-4.5,2L94.9,148.1L94.9,148.1z M154.2,150.1H94.5l-9.2-4
	l9.1-4h59.9c2.2,0.3,3.8,2.3,3.5,4.5C157.5,148.4,156,149.8,154.2,150.1"/>
<polygon class="st3" points="150.2,143.2 152.2,143.2 152.2,149.1 150.2,149.1 150.2,143.2 "/>
<path class="st2" d="M160.4,132.6l-79.6-0.3c-2,3.2-5.5,5.2-9.2,5.4l80.4-0.3C155.4,137.4,158.6,135.6,160.4,132.6"/>
<path class="st3" d="M82.4,127.8L82.4,127.8c0,3.6-1.7,6.9-4.6,8.9l74.1-0.2c4.9,0,8.9-4,8.9-9c0,0,0,0,0,0l0,0L82.4,127.8z
	 M71.6,138.7v-2c4.9,0,8.9-4,8.9-9c0,0,0,0,0,0v-2l82.3-0.3v2c0,6-4.8,11-10.9,11c0,0,0,0,0,0l0,0L71.6,138.7L71.6,138.7z"/>
<path class="st3" d="M71.5,138.7c-5.9,0-10.4-4.7-10.4-10.9V46.9h81.2v79.4h-2V48.9H63.1v78.9c0,5.1,3.6,8.9,8.4,8.9l0,0L71.5,138.7
	L71.5,138.7z"/>
<polygon class="st3" points="114.5,47.9 112.5,47.9 112.5,42 106,42 104,38 97.3,38 95.3,42 88.7,42 88.7,47.9 86.7,47.9 86.7,40 
	94.1,40 96.1,36 105.2,36 107.2,40 114.5,40 114.5,47.9 "/>
<path class="st4" d="M41.1,124.3c-1.1,0-2,0.9-2,2s0.9,2,2,2s2-0.9,2-2S42.2,124.3,41.1,124.3 M41.1,130.3c-2.2,0-4-1.8-4-4
	s1.8-4,4-4s4,1.8,4,4S43.3,130.3,41.1,130.3"/>
<polygon class="st4" points="48,52.9 50,52.9 50,60.8 48,60.8 48,52.9 "/>
<polygon class="st4" points="45.1,55.8 53,55.8 53,57.8 45.1,57.8 45.1,55.8 "/>
<polygon class="st4" points="103.4,106.4 89.6,92.6 95.2,87 103.4,95.2 119.9,78.7 125.5,84.3 103.4,106.4 "/>
<path class="st3" d="M103.6,79.7c-8.8,0-15.9,7.1-15.9,15.9s7.1,15.9,15.9,15.9s15.9-7.1,15.9-15.9l0,0l0,0
	C119.5,86.8,112.4,79.7,103.6,79.7C103.6,79.7,103.6,79.7,103.6,79.7L103.6,79.7 M103.6,113.4c-9.9,0-17.9-8-17.9-17.9
	s8-17.9,17.9-17.9s17.9,8,17.9,17.9C121.5,105.4,113.5,113.4,103.6,113.4C103.6,113.4,103.6,113.4,103.6,113.4L103.6,113.4"/>
</svg>
