<?xml version="1.0" encoding="utf-8"?>
<!-- Generator: Adobe Illustrator 22.0.1, SVG Export Plug-In . SVG Version: 6.00 Build 0)  -->
<svg version="1.1" id="Layer_1" xmlns="http://www.w3.org/2000/svg" xmlns:xlink="http://www.w3.org/1999/xlink" x="0px" y="0px"
	 viewBox="0 0 200 200" style="enable-background:new 0 0 200 200;" xml:space="preserve">
<style type="text/css">
	.st0{fill:#009BBD;}
	.st1{fill:#8D94B5;}
	.st2{fill:#191A4F;}
	.st3{fill:#B32B76;}
</style>
<title>Anti-slavery-icons</title>
<path class="st0" d="M148.7,43.4c-1.1,0-2,0.9-2,2s0.9,2,2,2s2-0.9,2-2S149.8,43.4,148.7,43.4 M148.7,49.4c-2.2,0-4-1.8-4-4
	s1.8-4,4-4s4,1.8,4,4S150.9,49.4,148.7,49.4"/>
<path class="st1" d="M126.7,133.4h-18c-4.4,0-8,3.6-8,8c0-4.4-3.6-8-8-8h-50v11h84V133.4z"/>
<polygon class="st1" points="154.7,133.4 158.7,133.4 158.7,144.4 154.7,144.4 "/>
<path class="st1" d="M61.7,60.4v56.2L93,131c4.5,1.4,7.6,5.6,7.6,10.4c0-4.4-3.6-8-8-8h-45v-73L61.7,60.4z"/>
<path class="st2" d="M101.7,141.4h-2v-81c0-5,4-9,9-9h52v83h-6v-2h4v-79h-50c-3.9,0-7,3.1-7,7v75.3c1.7-2.1,4.3-3.3,7-3.4h18v2h-18
	C104.8,134.4,101.7,137.5,101.7,141.4"/>
<path class="st2" d="M42.7,132.4h50c2.7,0,5.3,1.2,7,3.4V60.4c0-3.9-3.1-7-7-7h-50C42.7,53.4,42.7,132.4,42.7,132.4z M101.7,141.4
	h-2c0-3.9-3.1-7-7-7h-52v-83h52c5,0,9,4,9,9V141.4z"/>
<polygon class="st3" points="154.7,144.4 158.7,144.4 158.7,146.4 154.7,146.4 "/>
<path class="st3" d="M126.7,146.4h-10.6c-1.2,0-2.3-0.5-3.1-1.3c-0.5-0.5-1.1-0.7-1.7-0.7h-1.8c-0.4,1.2-1.6,2-2.8,2h-12
	c-1.3,0-2.4-0.8-2.8-2h-1.8c-0.6,0-1.1,0.2-1.5,0.5c0.1,0.3,0.1,0.6-0.1,0.9c-0.3,0.4-0.7,0.6-1.2,0.6H42.7v-2h43.9
	c0.1-0.3,0.2-0.5,0.4-0.7c0.8-0.8,1.9-1.3,3.1-1.3h3.6v1c0,0.6,0.4,1,1,1h12c0.6,0,1-0.4,1-1v-1h3.6c1.2,0,2.3,0.5,3.1,1.3
	c0.5,0.5,1.1,0.7,1.7,0.7h10.6V146.4L126.7,146.4z"/>
<path class="st1" d="M108.7,55.4c-2.8,0-5,2.2-5,5v71.2c1.5-0.8,3.3-1.2,5-1.2V55.4z"/>
<path class="st2" d="M62.7,115.8l30.8,14.4c2.5,1.3,4.6,3.1,6.2,5.4V60.5c0-4.4-2.8-8.2-7-9.4h-0.2l-29-13.7h-0.8V115.8z
	 M101.7,141.4h-2c0-4.3-4.3-8.1-7.1-9.5L60.7,117V35.4h3.2l29.4,13.7c5,1.5,8.4,6.1,8.4,11.3C101.7,60.5,101.7,141.4,101.7,141.4z"
	/>
<polygon class="st2" points="114.7,59.4 122.7,59.4 122.7,61.4 114.7,61.4 "/>
<polygon class="st2" points="114.7,67.4 150.7,67.4 150.7,69.4 114.7,69.4 "/>
<polygon class="st2" points="114.7,71.4 150.7,71.4 150.7,73.4 114.7,73.4 "/>
<polygon class="st2" points="114.7,75.4 150.7,75.4 150.7,77.4 114.7,77.4 "/>
<polygon class="st2" points="114.7,82.4 140.7,82.4 140.7,84.4 114.7,84.4 "/>
<polygon class="st2" points="114.7,86.4 140.7,86.4 140.7,88.4 114.7,88.4 "/>
<polygon class="st2" points="114.7,90.4 140.7,90.4 140.7,92.4 114.7,92.4 "/>
<polygon class="st2" points="114.7,98.4 122.7,98.4 122.7,100.4 114.7,100.4 "/>
<polygon class="st2" points="114.7,102.4 122.7,102.4 122.7,104.4 114.7,104.4 "/>
<polygon class="st2" points="114.7,106.4 122.7,106.4 122.7,108.4 114.7,108.4 "/>
<polygon class="st2" points="114.7,114.4 122.7,114.4 122.7,116.4 114.7,116.4 "/>
<polygon class="st2" points="114.7,118.4 122.7,118.4 122.7,120.4 114.7,120.4 "/>
<polygon class="st2" points="114.7,122.4 122.7,122.4 122.7,124.4 114.7,124.4 "/>
<polygon class="st2" points="127.7,37.4 129.7,37.4 129.7,45.4 127.7,45.4 "/>
<polygon class="st2" points="124.7,40.4 132.7,40.4 132.7,42.4 124.7,42.4 "/>
<polygon class="st2" points="115.7,157.4 117.7,157.4 117.7,165.4 115.7,165.4 "/>
<polygon class="st2" points="112.7,160.4 120.7,160.4 120.7,162.4 112.7,162.4 "/>
<path class="st3" d="M72.7,79.4c-1.1,0-2,0.9-2,2s0.9,2,2,2s2-0.9,2-2S73.8,79.4,72.7,79.4 M72.7,85.4c-2.2,0-4-1.8-4-4s1.8-4,4-4
	s4,1.8,4,4S74.9,85.4,72.7,85.4"/>
<path class="st2" d="M150.7,131.4h-2v-5.3l5.2-7.7c0.5-0.8,0.8-1.8,0.8-2.8v-9.8l-2.4-2.4h-1.6v10h-2v-12h4.4l3.6,3.6v10.6
	c0,1.4-0.4,2.7-1.2,3.9l-4.8,7.2V131.4L150.7,131.4z"/>
<path class="st2" d="M130.7,131.4h-2v-4.8l-3.6-8c-0.2-0.7-0.4-1.5-0.4-2.2v-14c0-2,1.4-3.7,3.3-4.1c1.2-0.2,2.4,0.1,3.2,0.9l0,0
	c0.6-1,1.6-1.7,2.8-1.9c1.4-0.2,2.7,0.3,3.7,1.3c1.5-1.7,4-1.8,5.6-0.4c0.9,0.8,1.4,1.8,1.4,3v0.2h-2v-0.2c0-1.1-0.9-2-2-2
	s-2,0.9-2,2h-2c0-1.1-0.9-2-2-2c-0.1,0-0.2,0-0.3,0c-1,0.2-1.7,1.1-1.7,2.1v0.8h-2c0-1.1-0.9-2-2-2c-0.1,0-0.2,0-0.3,0
	c-1,0.2-1.7,1.1-1.7,2.1v14c0,0.5,0.1,1,0.2,1.5l3.8,8.2V131.4L130.7,131.4z"/>
<polygon class="st2" points="130.7,99.2 132.7,99.2 132.7,107.4 130.7,107.4 "/>
<polygon class="st2" points="136.7,101.2 138.7,101.2 138.7,107.4 136.7,107.4 "/>
<path class="st2" d="M144.7,107.4h-2v-17c0-2.2,1.8-4,4-4s4,1.8,4,4v16h-2v-16c0-1.1-0.9-2-2-2s-2,0.9-2,2V107.4z"/>
<polygon class="st0" points="128.7,131.4 152.7,131.4 152.7,165.4 128.7,165.4 "/>
<path class="st2" d="M146.7,136.4c-0.6,0-1,0.4-1,1s0.4,1,1,1s1-0.4,1-1S147.2,136.4,146.7,136.4 M146.7,140.4c-1.7,0-3-1.3-3-3
	s1.3-3,3-3s3,1.3,3,3S148.3,140.4,146.7,140.4"/>
<path class="st0" d="M92.7,151.4c-1.1,0-2,0.9-2,2s0.9,2,2,2s2-0.9,2-2S93.8,151.4,92.7,151.4 M92.7,157.4c-2.2,0-4-1.8-4-4
	s1.8-4,4-4s4,1.8,4,4S94.9,157.4,92.7,157.4"/>
<polygon class="st1" points="77.3,92.8 79,91.8 80,93.6 78.3,94.6 "/>
<polygon class="st1" points="83.3,103.2 85,102.2 86,103.9 84.3,104.9 "/>
<polygon class="st1" points="75.1,95.8 76.1,94 77.8,95 76.8,96.8 "/>
<polygon class="st1" points="85.5,101.8 86.5,100 88.2,101 87.2,102.8 "/>
<polygon class="st1" points="74.7,97.4 76.7,97.4 76.7,99.4 74.7,99.4 "/>
<polygon class="st1" points="86.7,97.4 88.7,97.4 88.7,99.4 86.7,99.4 "/>
<polygon class="st1" points="75.1,101 76.8,100 77.8,101.8 76.1,102.8 "/>
<polygon class="st1" points="85.5,95 87.2,94 88.2,95.8 86.5,96.8 "/>
<polygon class="st1" points="77.3,103.9 78.3,102.2 80,103.2 79,104.9 "/>
<polygon class="st1" points="83.3,93.6 84.3,91.8 86,92.8 85,94.6 "/>
<polygon class="st1" points="80.7,103.4 82.7,103.4 82.7,105.4 80.7,105.4 "/>
<polygon class="st1" points="80.7,91.4 82.7,91.4 82.7,93.4 80.7,93.4 "/>
</svg>
