<svg xmlns="http://www.w3.org/2000/svg" xmlns:xlink="http://www.w3.org/1999/xlink" width="140" height="60" viewBox="0 0 140 60">
  <defs>
    <clipPath id="clip-path">
      <rect id="Rectangle_7391" data-name="Rectangle 7391" width="139.607" height="56.618" fill="currentColor"/>
    </clipPath>
    <clipPath id="clip-logo-dark">
      <rect width="140" height="60"/>
    </clipPath>
  </defs>
  <g id="logo-dark" clip-path="url(#clip-logo-dark)">
    <g id="Group_34434" data-name="Group 34434" transform="translate(-4 -2.823)">
      <g id="Group_34319" data-name="Group 34319" transform="translate(4.393 4.515)">
        <rect id="Rectangle_7385" data-name="Rectangle 7385" width="1.469" height="14.878" transform="translate(8.944)" fill="currentColor"/>
        <g id="Group_34316" data-name="Group 34316">
          <g id="Group_34315" data-name="Group 34315" clip-path="url(#clip-path)">
            <path id="Path_19962" data-name="Path 19962" d="M133.265,38.266a4.226,4.226,0,0,1,3.212-1.611q3.638,0,3.638,3.962V47.65H138.2V40.7a3.01,3.01,0,0,0-.471-1.9,1.884,1.884,0,0,0-1.545-.578,4,4,0,0,0-2.919,1.723v7.7H131.35V36.9h1.915Z" transform="translate(-117.512 -32.793)" fill="currentColor"/>
            <path id="Path_19963" data-name="Path 19963" d="M241.957,13.575a4.056,4.056,0,0,1-6.334.041,6.462,6.462,0,0,1-1.155-4.043A6.272,6.272,0,0,1,235.76,5.4a4.069,4.069,0,0,1,3.248-1.535,4.276,4.276,0,0,1,2.949,1.074V.006h1.905V14.862h-1.905Zm0-1.8V6.664a3.8,3.8,0,0,0-2.827-1.307,2.276,2.276,0,0,0-1.961,1.059,5.551,5.551,0,0,0-.735,3.157,5.4,5.4,0,0,0,.694,3.015,2.194,2.194,0,0,0,1.92,1.029,3.637,3.637,0,0,0,2.908-1.844" transform="translate(-209.767 -0.005)" fill="currentColor"/>
            <path id="Path_19964" data-name="Path 19964" d="M349.279,47.9a5.064,5.064,0,0,1-3.81-1.485,5.7,5.7,0,0,1-1.439-4.14,5.82,5.82,0,0,1,1.393-4.13,5.256,5.256,0,0,1,7.317-.025,5.856,5.856,0,0,1,1.373,4.155v.456h-8.1a4.155,4.155,0,0,0,1.029,2.767,3.044,3.044,0,0,0,2.234.9,3.3,3.3,0,0,0,1.809-.512,1.722,1.722,0,0,0,.846-1.454h1.976a3.565,3.565,0,0,1-1.5,2.564,5.3,5.3,0,0,1-3.126.9m2.817-6.668a3.9,3.9,0,0,0-1.044-2.321,2.927,2.927,0,0,0-3.952-.005,3.806,3.806,0,0,0-1.044,2.326Z" transform="translate(-307.787 -32.793)" fill="currentColor"/>
            <path id="Path_19965" data-name="Path 19965" d="M461.952,38.186a4.069,4.069,0,0,1,6.333-.035,6.439,6.439,0,0,1,1.155,4.038,6.288,6.288,0,0,1-1.292,4.18,4.079,4.079,0,0,1-3.258,1.535,4.214,4.214,0,0,1-2.939-1.084v4.965h-1.915V36.9h1.915Zm0,6.911a3.764,3.764,0,0,0,2.817,1.307,2.272,2.272,0,0,0,1.966-1.059,5.58,5.58,0,0,0,.73-3.156,5.432,5.432,0,0,0-.689-3.015,2.191,2.191,0,0,0-1.925-1.029,3.631,3.631,0,0,0-2.9,1.844Z" transform="translate(-411.572 -32.794)" fill="currentColor"/>
            <path id="Path_19966" data-name="Path 19966" d="M568.4,47.9a5.063,5.063,0,0,1-3.81-1.485,5.7,5.7,0,0,1-1.439-4.14,5.82,5.82,0,0,1,1.393-4.13,5.256,5.256,0,0,1,7.316-.025,5.856,5.856,0,0,1,1.373,4.155v.456h-8.1a4.156,4.156,0,0,0,1.029,2.767,3.044,3.044,0,0,0,2.234.9,3.3,3.3,0,0,0,1.809-.512,1.722,1.722,0,0,0,.846-1.454h1.976A3.565,3.565,0,0,1,571.53,47a5.3,5.3,0,0,1-3.126.9m2.817-6.668a3.9,3.9,0,0,0-1.044-2.321,2.927,2.927,0,0,0-3.952-.005,3.807,3.807,0,0,0-1.044,2.326Z" transform="translate(-503.826 -32.793)" fill="currentColor"/>
            <path id="Path_19967" data-name="Path 19967" d="M681.075,38.266a4.226,4.226,0,0,1,3.212-1.611q3.638,0,3.638,3.962V47.65H686.01V40.7a3.01,3.01,0,0,0-.471-1.9,1.884,1.884,0,0,0-1.545-.578,4,4,0,0,0-2.919,1.723v7.7H679.16V36.9h1.915Z" transform="translate(-607.611 -32.793)" fill="currentColor"/>
            <path id="Path_19968" data-name="Path 19968" d="M789.766,13.575a4.057,4.057,0,0,1-6.334.041,6.461,6.461,0,0,1-1.155-4.043,6.272,6.272,0,0,1,1.292-4.17,4.069,4.069,0,0,1,3.248-1.535,4.276,4.276,0,0,1,2.949,1.074V.006h1.905V14.862h-1.905Zm0-1.8V6.664a3.8,3.8,0,0,0-2.827-1.307,2.276,2.276,0,0,0-1.961,1.059,5.551,5.551,0,0,0-.735,3.157,5.4,5.4,0,0,0,.694,3.015,2.194,2.194,0,0,0,1.92,1.029,3.637,3.637,0,0,0,2.908-1.844" transform="translate(-699.864 -0.005)" fill="currentColor"/>
            <path id="Path_19969" data-name="Path 19969" d="M897.088,47.9a5.064,5.064,0,0,1-3.81-1.485,5.7,5.7,0,0,1-1.439-4.14,5.82,5.82,0,0,1,1.393-4.13,5.256,5.256,0,0,1,7.317-.025,5.856,5.856,0,0,1,1.373,4.155v.456h-8.1a4.156,4.156,0,0,0,1.029,2.767,3.044,3.044,0,0,0,2.234.9,3.3,3.3,0,0,0,1.809-.512,1.722,1.722,0,0,0,.846-1.454h1.976a3.565,3.565,0,0,1-1.5,2.564,5.3,5.3,0,0,1-3.126.9m2.817-6.668a3.9,3.9,0,0,0-1.044-2.321,2.927,2.927,0,0,0-3.952-.005,3.807,3.807,0,0,0-1.044,2.326Z" transform="translate(-797.884 -32.793)" fill="currentColor"/>
            <path id="Path_19970" data-name="Path 19970" d="M1009.761,38.266a4.226,4.226,0,0,1,3.212-1.611q3.638,0,3.638,3.962V47.65H1014.7V40.7a3.009,3.009,0,0,0-.471-1.9,1.884,1.884,0,0,0-1.545-.578,4,4,0,0,0-2.918,1.723v7.7h-1.915V36.9h1.915Z" transform="translate(-901.67 -32.793)" fill="currentColor"/>
            <path id="Path_19971" data-name="Path 19971" d="M1112.632,27.016a7.205,7.205,0,0,1-1.368.122,2.834,2.834,0,0,1-1.723-.421,1.757,1.757,0,0,1-.679-1.079,9.557,9.557,0,0,1-.132-1.794v-6.1H1107.4v-1.5h1.328V13.569h1.905v2.675h1.743v1.5h-1.743v6.2a2.284,2.284,0,0,0,.279,1.4,1,1,0,0,0,.765.3,5.425,5.425,0,0,0,.953-.081Z" transform="translate(-990.738 -12.14)" fill="currentColor"/>
            <path id="Path_19972" data-name="Path 19972" d="M64.636,194.006l-5.948,15.488h2.759l1.642-4.52h5.783l1.723,4.52H73.5l-6.318-15.488Zm3.418,8.776h-4.2l2.049-5.665Z" transform="translate(-52.505 -173.568)" fill="currentColor"/>
            <path id="Path_19973" data-name="Path 19973" d="M213.61,230.655a4.291,4.291,0,0,0-2.9,1.164v-.92h-2.547v11.384h2.547v-7.9a3.644,3.644,0,0,1,2.6-1.524,1.6,1.6,0,0,1,1.3.461,2.744,2.744,0,0,1,.4,1.7v7.268h2.547v-7.349c0-2.8-1.367-4.278-3.954-4.278" transform="translate(-186.236 -206.356)" fill="currentColor"/>
            <path id="Path_19974" data-name="Path 19974" d="M315.47,219.649a.688.688,0,0,1-.534-.2c-.045-.049-.194-.278-.194-1.188v-5.886h1.743v-2.132h-1.743v-2.675H312.2v2.675h-1.328v2.132H312.2v5.784a9.928,9.928,0,0,0,.138,1.856,2.072,2.072,0,0,0,.8,1.268,3.1,3.1,0,0,0,1.915.486,7.559,7.559,0,0,0,1.428-.127l.256-.05v-2.087l-.371.066a5.134,5.134,0,0,1-.9.076" transform="translate(-278.126 -185.702)" fill="currentColor"/>
            <rect id="Rectangle_7386" data-name="Rectangle 7386" width="2.547" height="2.699" transform="translate(39.903 20.438)" fill="currentColor"/>
            <rect id="Rectangle_7387" data-name="Rectangle 7387" width="2.547" height="11.384" transform="translate(39.903 24.543)" fill="currentColor"/>
            <rect id="Rectangle_7388" data-name="Rectangle 7388" width="6.206" height="2.466" transform="translate(44.228 29.001)" fill="currentColor"/>
            <path id="Path_19975" data-name="Path 19975" d="M500.405,198.805a25.965,25.965,0,0,0-3.187-.873,8.985,8.985,0,0,1-2.6-.859,1.244,1.244,0,0,1-.579-1.133,1.591,1.591,0,0,1,.764-1.381,4.188,4.188,0,0,1,2.365-.563c2.094,0,3.2.79,3.374,2.414l.031.282H503.1l-.014-.33a4.446,4.446,0,0,0-1.756-3.532,6.881,6.881,0,0,0-4.244-1.229,6.292,6.292,0,0,0-4.033,1.224,3.941,3.941,0,0,0-1.563,3.206,3.542,3.542,0,0,0,1.218,2.8,8.5,8.5,0,0,0,3.8,1.575,14.838,14.838,0,0,1,3.509,1.069,1.571,1.571,0,0,1,.877,1.5,1.8,1.8,0,0,1-.869,1.582,4.4,4.4,0,0,1-2.484.625,5.078,5.078,0,0,1-2.8-.745,2.755,2.755,0,0,1-1.24-2.221l-.026-.287H490.96l.012.328a5.245,5.245,0,0,0,1.74,3.84,7.133,7.133,0,0,0,4.909,1.49,6.353,6.353,0,0,0,4.18-1.34,4.287,4.287,0,0,0,1.639-3.425,3.72,3.72,0,0,0-.915-2.622,5.373,5.373,0,0,0-2.12-1.4" transform="translate(-439.238 -171.416)" fill="currentColor"/>
            <rect id="Rectangle_7389" data-name="Rectangle 7389" width="2.547" height="15.488" transform="translate(66.385 20.438)" fill="currentColor"/>
            <path id="Path_19976" data-name="Path 19976" d="M681.025,231.534a5.816,5.816,0,0,0-3.405-.879c-3.135,0-4.8,1.214-4.957,3.609l-.022.336h2.545l.013-.3c.029-.653.3-1.522,2.319-1.522a3.229,3.229,0,0,1,1.607.3,1.082,1.082,0,0,1,.537.669,6.737,6.737,0,0,1,.111,1.289h-.614c-4.52,0-6.812,1.375-6.812,4.086a3.1,3.1,0,0,0,1.147,2.477,4.285,4.285,0,0,0,2.838.94,5.81,5.81,0,0,0,3.444-1.009v.756h2.537v-7.268c0-1.7-.433-2.873-1.288-3.48m-2.459,8.475a3.854,3.854,0,0,1-1.687.394,2.452,2.452,0,0,1-1.456-.381,1.156,1.156,0,0,1-.478-1.006c0-1.944,2.889-1.944,3.839-1.944h.991v1.964a3.235,3.235,0,0,1-1.21.972" transform="translate(-601.516 -206.356)" fill="currentColor"/>
            <path id="Path_19977" data-name="Path 19977" d="M784.188,240.7l-2.621-7.741h-2.751l4.3,11.384h2.139l4.3-11.384h-2.751Z" transform="translate(-696.768 -208.421)" fill="currentColor"/>
            <path id="Path_19978" data-name="Path 19978" d="M891.49,230.654a5.074,5.074,0,0,0-3.874,1.6,6.148,6.148,0,0,0-1.478,4.345,6.026,6.026,0,0,0,1.528,4.36,5.39,5.39,0,0,0,4.037,1.581,5.629,5.629,0,0,0,3.308-.959,3.886,3.886,0,0,0,1.636-2.78l.048-.358h-2.64l-.013.3a1.41,1.41,0,0,1-.7,1.2,3,3,0,0,1-1.639.462,2.717,2.717,0,0,1-2.011-.81,3.624,3.624,0,0,1-.907-2.226h8.068v-.772a6.183,6.183,0,0,0-1.458-4.371,5.113,5.113,0,0,0-3.9-1.57m-2.635,4.58a3.258,3.258,0,0,1,.884-1.778,2.611,2.611,0,0,1,3.519,0,3.345,3.345,0,0,1,.884,1.775Z" transform="translate(-792.783 -206.355)" fill="currentColor"/>
            <path id="Path_19979" data-name="Path 19979" d="M1011.506,230.655a3.359,3.359,0,0,0-2.481,1.164v-.92h-2.547v11.384h2.547v-7.817a2.643,2.643,0,0,1,2.187-1.313,4.011,4.011,0,0,1,1.074.108l.407.122v-2.6l-.262-.046a5.443,5.443,0,0,0-.926-.086" transform="translate(-900.446 -206.356)" fill="currentColor"/>
            <path id="Path_19980" data-name="Path 19980" d="M1081.947,232.963l-2.621,7.741-2.621-7.741h-2.751l4.184,11.072c-.543,1.51-1.21,2.275-1.984,2.275a2.69,2.69,0,0,1-.816-.127l-.412-.131v2.437l.232.064a5.056,5.056,0,0,0,1.32.153,2.721,2.721,0,0,0,1.833-.649,4.727,4.727,0,0,0,1.152-1.509c.276-.563.616-1.372,1.01-2.4l4.225-11.18Z" transform="translate(-960.813 -208.42)" fill="currentColor"/>
            <path id="Path_19981" data-name="Path 19981" d="M79.391,406.964a6.46,6.46,0,0,1-5.031-2.072,9.308,9.308,0,0,1,0-11.218,6.46,6.46,0,0,1,5.031-2.072,6.572,6.572,0,0,1,4.124,1.307,4.769,4.769,0,0,1,1.915,3.445H83.4a3.009,3.009,0,0,0-1.221-2.24,4.951,4.951,0,0,0-6.349.725,8.171,8.171,0,0,0-.01,8.882,4.923,4.923,0,0,0,6.364.709A3.327,3.327,0,0,0,83.4,402h2.027a5,5,0,0,1-1.865,3.668,6.553,6.553,0,0,1-4.175,1.3" transform="translate(-64.844 -350.346)" fill="currentColor"/>
            <path id="Path_19982" data-name="Path 19982" d="M217.475,430.656a4.788,4.788,0,0,1,3.674,1.469,6.965,6.965,0,0,1,0,8.3,5.3,5.3,0,0,1-7.337,0,6.965,6.965,0,0,1,0-8.3,4.775,4.775,0,0,1,3.663-1.469m0,9.749a2.733,2.733,0,0,0,2.219-1.039,6.037,6.037,0,0,0,0-6.182,2.89,2.89,0,0,0-4.439,0,6.037,6.037,0,0,0,0,6.182,2.733,2.733,0,0,0,2.219,1.039" transform="translate(-190.059 -385.287)" fill="currentColor"/>
            <path id="Path_19983" data-name="Path 19983" d="M342.979,441.651h-1.915V434.7a3.524,3.524,0,0,0-.385-1.905,1.441,1.441,0,0,0-1.287-.568,3.632,3.632,0,0,0-2.726,1.723v7.7H334.76V434.7a3.525,3.525,0,0,0-.385-1.905,1.453,1.453,0,0,0-1.3-.568,3.606,3.606,0,0,0-2.716,1.723v7.7h-1.915V430.9h1.915v1.368a3.914,3.914,0,0,1,3.01-1.611,2.82,2.82,0,0,1,3.01,1.946A6.009,6.009,0,0,1,338.206,431a3.549,3.549,0,0,1,1.47-.339q3.3,0,3.3,3.962Z" transform="translate(-293.845 -385.287)" fill="currentColor"/>
            <path id="Path_19984" data-name="Path 19984" d="M507.081,441.651h-1.915V434.7a3.525,3.525,0,0,0-.385-1.905,1.441,1.441,0,0,0-1.287-.568,3.632,3.632,0,0,0-2.726,1.723v7.7h-1.905V434.7a3.526,3.526,0,0,0-.385-1.905,1.453,1.453,0,0,0-1.3-.568,3.606,3.606,0,0,0-2.716,1.723v7.7h-1.915V430.9h1.915v1.368a3.914,3.914,0,0,1,3.01-1.611,2.82,2.82,0,0,1,3.01,1.946A6.01,6.01,0,0,1,502.308,431a3.548,3.548,0,0,1,1.47-.339q3.3,0,3.3,3.962Z" transform="translate(-440.659 -385.287)" fill="currentColor"/>
            <path id="Path_19985" data-name="Path 19985" d="M658.567,396.073h-1.915v-2.067h1.915Zm0,12.789h-1.915V398.11h1.915Z" transform="translate(-587.474 -352.498)" fill="currentColor"/>
            <path id="Path_19986" data-name="Path 19986" d="M698.874,441.9q-4.408,0-4.611-3.466h1.915q.02,1.966,2.675,1.966a2.87,2.87,0,0,0,1.809-.491,1.508,1.508,0,0,0,.623-1.231,1.054,1.054,0,0,0-.608-1.029,15.344,15.344,0,0,0-2.508-.775,9.234,9.234,0,0,1-2.777-1.064,2.3,2.3,0,0,1-.876-2.067,2.725,2.725,0,0,1,1.089-2.214,4.512,4.512,0,0,1,2.913-.876q4.226,0,4.317,3.01h-1.905q-.1-1.52-2.28-1.52a3.161,3.161,0,0,0-1.6.365,1.161,1.161,0,0,0-.633,1.064.965.965,0,0,0,.486.907,12.119,12.119,0,0,0,2.437.75,9.433,9.433,0,0,1,2.9,1.1,2.406,2.406,0,0,1,.948,2.169,3.031,3.031,0,0,1-1.171,2.437,4.785,4.785,0,0,1-3.146.968" transform="translate(-621.123 -385.287)" fill="currentColor"/>
            <path id="Path_19987" data-name="Path 19987" d="M797.373,441.9q-4.408,0-4.611-3.466h1.915q.02,1.966,2.675,1.966a2.87,2.87,0,0,0,1.809-.491,1.508,1.508,0,0,0,.623-1.231,1.054,1.054,0,0,0-.608-1.029,15.338,15.338,0,0,0-2.508-.775,9.235,9.235,0,0,1-2.777-1.064,2.3,2.3,0,0,1-.877-2.067,2.725,2.725,0,0,1,1.089-2.214,4.513,4.513,0,0,1,2.914-.876q4.226,0,4.317,3.01H799.43q-.1-1.52-2.28-1.52a3.161,3.161,0,0,0-1.6.365,1.161,1.161,0,0,0-.633,1.064.965.965,0,0,0,.486.907,12.12,12.12,0,0,0,2.437.75,9.434,9.434,0,0,1,2.9,1.1,2.406,2.406,0,0,1,.948,2.169,3.031,3.031,0,0,1-1.171,2.437,4.785,4.785,0,0,1-3.146.968" transform="translate(-709.245 -385.287)" fill="currentColor"/>
            <path id="Path_19988" data-name="Path 19988" d="M900.487,396.073h-1.915v-2.067h1.915Zm0,12.789h-1.915V398.11h1.915Z" transform="translate(-803.908 -352.498)" fill="currentColor"/>
            <path id="Path_19989" data-name="Path 19989" d="M942.085,430.656a4.788,4.788,0,0,1,3.674,1.469,6.965,6.965,0,0,1,0,8.3,5.3,5.3,0,0,1-7.337,0,6.964,6.964,0,0,1,0-8.3,4.775,4.775,0,0,1,3.663-1.469m0,9.749a2.733,2.733,0,0,0,2.219-1.039,6.037,6.037,0,0,0,0-6.182,2.89,2.89,0,0,0-4.438,0,6.036,6.036,0,0,0,0,6.182,2.733,2.733,0,0,0,2.219,1.039" transform="translate(-838.33 -385.287)" fill="currentColor"/>
            <path id="Path_19990" data-name="Path 19990" d="M1054.971,432.267a4.226,4.226,0,0,1,3.212-1.611q3.638,0,3.638,3.962v7.033h-1.915V434.7a3.009,3.009,0,0,0-.471-1.895,1.883,1.883,0,0,0-1.545-.578,4,4,0,0,0-2.918,1.723v7.7h-1.915V430.9h1.915Z" transform="translate(-942.117 -385.287)" fill="currentColor"/>
            <path id="Path_19991" data-name="Path 19991" d="M1161.422,441.9a5.063,5.063,0,0,1-3.81-1.485,5.7,5.7,0,0,1-1.439-4.14,5.821,5.821,0,0,1,1.393-4.129,5.256,5.256,0,0,1,7.317-.025,5.856,5.856,0,0,1,1.373,4.155v.456h-8.1a4.156,4.156,0,0,0,1.029,2.766,3.045,3.045,0,0,0,2.234.9,3.3,3.3,0,0,0,1.809-.512,1.722,1.722,0,0,0,.846-1.454h1.976a3.566,3.566,0,0,1-1.5,2.564,5.3,5.3,0,0,1-3.126.9m2.817-6.668a3.9,3.9,0,0,0-1.044-2.321,2.927,2.927,0,0,0-3.952-.005,3.807,3.807,0,0,0-1.044,2.326Z" transform="translate(-1034.371 -385.286)" fill="currentColor"/>
            <path id="Path_19992" data-name="Path 19992" d="M1277.764,432.641a4.279,4.279,0,0,0-1.166-.122,3,3,0,0,0-2.5,1.53v7.6h-1.915V430.9h1.915v1.5a3.414,3.414,0,0,1,2.8-1.743,5.1,5.1,0,0,1,.872.081Z" transform="translate(-1138.156 -385.286)" fill="currentColor"/>
            <path id="Path_19993" data-name="Path 19993" d="M0,0H3.055V56.243H0Z" fill="currentColor"/>
          </g>
        </g>
      </g>
    </g>
  </g>
</svg>
