<?xml version="1.0" encoding="utf-8"?>
<!-- Generator: Adobe Illustrator 22.0.1, SVG Export Plug-In . SVG Version: 6.00 Build 0)  -->
<svg version="1.1" id="Layer_1" xmlns="http://www.w3.org/2000/svg" xmlns:xlink="http://www.w3.org/1999/xlink" x="0px" y="0px"
	 viewBox="0 0 199.9 200" style="enable-background:new 0 0 199.9 200;" xml:space="preserve">
<style type="text/css">
	.st0{fill:none;}
	.st1{fill:#8D94B5;}
	.st2{fill:#191A4F;}
	.st3{fill:#B32B76;}
	.st4{fill:#009BBD;}
</style>
<title>Anti-slavery-icons-Legislation-Report</title>
<rect class="st0" width="199.9" height="200"/>
<polygon class="st1" points="149,98.4 135,88.4 135,106.4 163,106.4 163,88.4 149,98.4 "/>
<polygon class="st1" points="135,85.9 149,95.9 163,85.9 135,85.9 "/>
<polygon class="st1" points="50.9,59.9 36.9,49.9 36.9,67.9 64.9,67.9 64.9,49.9 50.9,59.9 "/>
<polygon class="st1" points="36.9,47.5 50.9,57.5 64.9,47.5 36.9,47.5 "/>
<path class="st2" d="M141.9,103.9h-84v-2H50v-61c0-2.8,2.2-5,5-5h89.9v2H55c-1.7,0-3,1.3-3,3v59h7.9v2h80v-2h8v-44h2v46h-8V103.9z"
	/>
<path class="st3" d="M115,156.9H85c-0.6,0-1-0.4-1-1v-19c0-0.6,0.4-1,1-1h30c0.6,0,1,0.4,1,1v19C116,156.5,115.6,156.9,115,156.9z"
	/>
<polygon class="st3" points="132.9,130.9 138.9,130.9 138.9,124.9 132.9,124.9 132.9,130.9 "/>
<polygon class="st3" points="124.9,130.9 130.9,130.9 130.9,124.9 124.9,124.9 124.9,130.9 "/>
<polygon class="st3" points="116.9,130.9 122.9,130.9 122.9,124.9 116.9,124.9 116.9,130.9 "/>
<polygon class="st3" points="108.9,130.9 114.9,130.9 114.9,124.9 108.9,124.9 108.9,130.9 "/>
<polygon class="st3" points="100.9,130.9 106.9,130.9 106.9,124.9 100.9,124.9 100.9,130.9 "/>
<polygon class="st3" points="92.9,130.9 98.9,130.9 98.9,124.9 92.9,124.9 92.9,130.9 "/>
<polygon class="st3" points="84.9,130.9 90.9,130.9 90.9,124.9 84.9,124.9 84.9,130.9 "/>
<polygon class="st3" points="76.9,130.9 82.9,130.9 82.9,124.9 76.9,124.9 76.9,130.9 "/>
<polygon class="st3" points="68.9,130.9 74.9,130.9 74.9,124.9 68.9,124.9 68.9,130.9 "/>
<polygon class="st3" points="60.9,130.9 66.9,130.9 66.9,124.9 60.9,124.9 60.9,130.9 "/>
<polygon class="st3" points="128.9,122.9 134.9,122.9 134.9,116.9 128.9,116.9 128.9,122.9 "/>
<polygon class="st3" points="120.9,122.9 126.9,122.9 126.9,116.9 120.9,116.9 120.9,122.9 "/>
<polygon class="st3" points="112.9,122.9 118.9,122.9 118.9,116.9 112.9,116.9 112.9,122.9 "/>
<polygon class="st3" points="104.9,122.9 110.9,122.9 110.9,116.9 104.9,116.9 104.9,122.9 "/>
<polygon class="st3" points="96.9,122.9 102.9,122.9 102.9,116.9 96.9,116.9 96.9,122.9 "/>
<polygon class="st3" points="88.9,122.9 94.9,122.9 94.9,116.9 88.9,116.9 88.9,122.9 "/>
<polygon class="st3" points="80.9,122.9 86.9,122.9 86.9,116.9 80.9,116.9 80.9,122.9 "/>
<polygon class="st3" points="72.9,122.9 78.9,122.9 78.9,116.9 72.9,116.9 72.9,122.9 "/>
<polygon class="st3" points="64.9,122.9 70.9,122.9 70.9,116.9 64.9,116.9 64.9,122.9 "/>
<polygon class="st3" points="56.9,122.9 62.9,122.9 62.9,116.9 56.9,116.9 56.9,122.9 "/>
<polygon class="st3" points="136.9,122.9 142.9,122.9 142.9,116.9 136.9,116.9 136.9,122.9 "/>
<polygon class="st3" points="132.9,114.9 138.9,114.9 138.9,108.9 132.9,108.9 132.9,114.9 "/>
<polygon class="st3" points="124.9,114.9 130.9,114.9 130.9,108.9 124.9,108.9 124.9,114.9 "/>
<polygon class="st3" points="116.9,114.9 122.9,114.9 122.9,108.9 116.9,108.9 116.9,114.9 "/>
<polygon class="st3" points="108.9,114.9 114.9,114.9 114.9,108.9 108.9,108.9 108.9,114.9 "/>
<polygon class="st3" points="100.9,114.9 106.9,114.9 106.9,108.9 100.9,108.9 100.9,114.9 "/>
<polygon class="st3" points="92.9,114.9 98.9,114.9 98.9,108.9 92.9,108.9 92.9,114.9 "/>
<polygon class="st3" points="84.9,114.9 90.9,114.9 90.9,108.9 84.9,108.9 84.9,114.9 "/>
<polygon class="st3" points="76.9,114.9 82.9,114.9 82.9,108.9 76.9,108.9 76.9,114.9 "/>
<polygon class="st3" points="68.9,114.9 74.9,114.9 74.9,108.9 68.9,108.9 68.9,114.9 "/>
<polygon class="st3" points="60.9,114.9 66.9,114.9 66.9,108.9 60.9,108.9 60.9,114.9 "/>
<path class="st2" d="M62.1,163.9H55c-2.8,0-5-2.2-5-5v-58h2v58c0,1.7,1.3,3,3,3h7.1L62.1,163.9L62.1,163.9z"/>
<path class="st2" d="M66,163.9h-2v-9.3l-3.6-8c-0.2-0.7-0.4-1.5-0.4-2.2v-17.8c0-2,1.4-3.8,3.4-4.1c0.9-0.2,1.9,0,2.7,0.5v-2.4
	c0-2,1.4-3.7,3.3-4.1c1.2-0.2,2.4,0.1,3.2,0.9c0.1,0.1,0.3,0.3,0.4,0.4c1.5-1.7,4-1.8,5.6-0.4c0.1,0.1,0.2,0.2,0.4,0.4
	c0.6-0.7,1.4-1.2,2.3-1.3c2.2-0.4,4.2,1.1,4.6,3.3c0,0.2,0.1,0.4,0.1,0.7v9h-2v-9c0-1.1-0.9-2-2-2c-0.1,0-0.2,0-0.4,0
	c-1,0.2-1.7,1.1-1.7,2.1h-2v-0.2c0-1.1-0.9-2-2-2s-2,0.9-2,2h-2c0-1.1-0.9-2-2-2c-0.1,0-0.2,0-0.4,0c-1,0.2-1.7,1.1-1.7,2.1v5.8h-2
	c0-1.1-0.9-2-2-2c-0.1,0-0.2,0-0.4,0c-1,0.2-1.7,1.1-1.7,2.1v17.9c0,0.5,0.1,1,0.2,1.5L66,154v9.7L66,163.9z"/>
<polygon class="st2" points="68,135.4 66,135.4 66,123.4 68,123.4 68,135.4 "/>
<polygon class="st2" points="74,135.4 72,135.4 72,120.4 74,120.4 74,135.4 "/>
<polygon class="st2" points="80,135.4 78,135.4 78,119.4 80,119.4 80,135.4 "/>
<path class="st2" d="M86,163.9h-2v-9.8l5.2-7.8c0.5-0.8,0.8-1.8,0.8-2.8v-10.8l-2.4-2.4H86v9.5h-2v-11.5h4.4L92,132v11.6
	c0,1.4-0.4,2.7-1.2,3.9l-4.8,7.2L86,163.9L86,163.9z"/>
<polygon class="st2" points="112,163.9 88,163.9 88,161.9 112,161.9 112,163.9 "/>
<path class="st2" d="M116,163.9h-2v-9.2l-4.8-7.2c-0.8-1.1-1.2-2.5-1.2-3.9V132l3.6-3.6h4.4v11.5h-2v-9.5h-1.6l-2.4,2.4v10.8
	c0,1,0.3,1.9,0.8,2.8l5.2,7.7L116,163.9L116,163.9z"/>
<path class="st2" d="M144.9,163.9h-7v-2h7c1.7,0,3-1.3,3-3v-58h2v58C149.9,161.7,147.7,163.9,144.9,163.9z"/>
<path class="st2" d="M136,163.9h-2v-9.7l3.8-8.2c0.2-0.5,0.2-1,0.2-1.5v-17.9c0-1-0.7-1.9-1.7-2.1c-1.1-0.2-2.1,0.5-2.3,1.6
	c0,0.1,0,0.2,0,0.4h-2v-5.8c0-1-0.7-1.9-1.7-2.1c-1.1-0.2-2.1,0.5-2.3,1.6c0,0.1,0,0.2,0,0.4h-2c0-1.1-0.9-2-2-2s-2,0.9-2,2v0.2h-2
	c0-1-0.7-1.9-1.7-2.1c-1.1-0.2-2.1,0.5-2.3,1.6c0,0.1,0,0.2,0,0.4v9h-2v-9c0-2.2,1.8-4,4-4c0.2,0,0.4,0,0.7,0.1
	c0.9,0.2,1.7,0.6,2.3,1.3c1.5-1.7,4-1.8,5.6-0.4c0.1,0.1,0.2,0.2,0.4,0.4c0.1-0.1,0.3-0.3,0.4-0.4c0.9-0.8,2.1-1.1,3.2-0.9
	c2,0.4,3.4,2.1,3.3,4.1v2.4c0.8-0.5,1.8-0.6,2.7-0.5c2,0.4,3.4,2.1,3.3,4.1v17.9c0,0.8-0.1,1.5-0.4,2.2v0.1l-3.6,7.9L136,163.9
	L136,163.9z"/>
<polygon class="st2" points="134,135.4 132,135.4 132,123.4 134,123.4 134,135.4 "/>
<polygon class="st2" points="128,135.4 126,135.4 126,120.4 128,120.4 128,135.4 "/>
<polygon class="st2" points="122,135.4 120,135.4 120,119.4 122,119.4 122,135.4 "/>
<polygon class="st2" points="56.5,94.4 55.1,93 69.8,78.4 77.9,86.6 87.1,77.4 94.1,84.4 113,65.6 121,73.6 158.3,36.3 159.7,37.7 
	121,76.4 113,68.4 94.1,87.2 87.1,80.2 77.9,89.4 69.8,81.2 56.5,94.4 "/>
<polygon class="st2" points="160,45 158,45 158,38 151,38 151,36 160,36 160,45 "/>
<polygon class="st4" points="121,79.2 113,71.2 94.1,90.1 87.1,83.1 77.9,92.2 69.8,84.1 55.9,97.9 146,97.9 146,54.2 121,79.2 "/>
<polygon class="st2" points="43,81.9 41,81.9 41,73.9 43,73.9 43,81.9 "/>
<polygon class="st2" points="46,78.9 38,78.9 38,76.9 46,76.9 46,78.9 "/>
<polygon class="st2" points="159,129.9 157,129.9 157,121.9 159,121.9 159,129.9 "/>
<polygon class="st2" points="162,126.9 154,126.9 154,124.9 162,124.9 162,126.9 "/>
</svg>
