<?xml version="1.0" encoding="utf-8"?>
<!-- Generator: Adobe Illustrator 22.0.1, SVG Export Plug-In . SVG Version: 6.00 Build 0)  -->
<svg version="1.1" id="Layer_1" xmlns="http://www.w3.org/2000/svg" xmlns:xlink="http://www.w3.org/1999/xlink" x="0px" y="0px"
	 viewBox="0 0 200 200" style="enable-background:new 0 0 200 200;" xml:space="preserve">
<style type="text/css">
	.st0{fill:#8D94B5;}
	.st1{fill:#009BBD;}
	.st2{fill:#191A4F;}
	.st3{fill:#B32B76;}
</style>
<title>Anti-slavery-icons</title>
<path class="st0" d="M126.5,98.2H60.3v1.3c0,3.2,2.6,5.7,5.7,5.7l0,0h60.5V98.2L126.5,98.2z"/>
<path class="st1" d="M67.5,64.5h-22c-2.2,0-4-1.8-4-4h-1v22c0,2.8,2.2,5,5,5h23v-23H67.5z"/>
<path class="st2" d="M68.5,65.5h-15v-2h13v-6h-21c-1.7,0-3,1.3-3,3s1.3,3,3,3h1.9v2h-1.9c-2.8,0-5-2.2-5-5s2.2-5,5-5h23V65.5z"/>
<path class="st2" d="M48.5,61.5v13.1l2-1.3l2,1.3V61.5H48.5z M54.5,78.4l-4-2.7l-4,2.7V59.5h8V78.4z"/>
<path class="st1" d="M154.2,74.5c-2.5,0-4.7-1.6-5.6-3.9c1.1-3.1,4.4-4.7,7.5-3.6c1.7,0.6,3,1.9,3.6,3.6
	C158.9,72.9,156.7,74.5,154.2,74.5"/>
<path class="st2" d="M147.9,87.9h-2V74.8c0-3.8-3.1-6.8-6.9-6.8v-2c4.9,0,8.9,4,8.9,8.9V87.9z"/>
<path class="st3" d="M154.7,107.5L154.7,107.5c5.4,0,9.8-4.4,9.8-9.8V85.9c0-4.3-3.5-7.9-7.9-7.9l0,0h-2c-4.3,0-7.9,3.5-7.9,7.9
	c0-4.3-3.5-7.9-7.8-7.9h-2c-4.3,0-7.9,3.5-7.9,7.9v11.8c0,5.4,4.4,9.8,9.8,9.8C138.8,107.5,154.7,107.5,154.7,107.5z"/>
<path class="st2" d="M47.8,136h-4.7v-16.7c0-3.3,2.7-6,6-6h8.2v2h-8.2c-2.2,0-4,1.8-4,4V134h2.7V136z"/>
<path class="st2" d="M155.9,136h-4.7v-2h2.7v-14.7c0-2.2-1.8-4-4-4h-7.3v-2h7.3c3.3,0,6,2.7,6,6V136z"/>
<path class="st1" d="M57.3,152.8V118h-8.5c-0.6,0-1,0.4-1,1v33.8c0,4.8,3.9,8.7,8.7,8.7l0,0H66C61.2,161.6,57.3,157.7,57.3,152.8
	L57.3,152.8"/>
<path class="st1" d="M48.8,119v33.8c0,4.3,3.5,7.7,7.7,7.7l0,0h3.6c-2.4-1.8-3.8-4.7-3.8-7.7V119H48.8z M66,162.5h-9.5
	c-5.4,0-9.7-4.3-9.7-9.7l0,0V119c0-1.1,0.9-2,2-2h9.5v35.8c0,4.3,3.5,7.7,7.7,7.7l0,0V162.5z"/>
<path class="st1" d="M150.4,118h-7.6v34.8c0,4.8-3.9,8.7-8.7,8.7l0,0h8.5c4.8,0,8.8-3.9,8.9-8.7V119
	C151.4,118.4,150.9,118,150.4,118"/>
<path class="st1" d="M139.9,160.5h2.6c4.3,0,7.8-3.4,7.9-7.7V119h-6.6v33.8C143.7,155.9,142.3,158.7,139.9,160.5 M142.5,162.6H134
	v-2c4.3,0,7.7-3.5,7.7-7.7l0,0V117h8.6c1.1,0,2,0.9,2,2v33.8C152.3,158.2,147.9,162.6,142.5,162.6"/>
<path class="st1" d="M67.5,49.5v-13c0-1.1,0.9-2,2-2h10c1.1,0,2,0.9,2,2v13H67.5z"/>
<path class="st1" d="M117.5,49.5v-13c0-1.1,0.9-2,2-2h10c1.1,0,2,0.9,2,2v13H117.5z"/>
<path class="st1" d="M71.3,114.5h57.3c2.2,0,4,1.8,4,4v31.9c0,2.2-1.8,4-4,4H71.3c-2.2,0-4-1.8-4-4v-31.9
	C67.3,116.3,69.1,114.5,71.3,114.5"/>
<path class="st2" d="M90.5,48.8h18v-4.3h-18V48.8z M110.5,50.8h-22v-6.3c0-1.1,0.9-2,2-2h18c1.1,0,2,0.9,2,2V50.8z"/>
<path class="st2" d="M134,162.5H66c-5.4,0-9.7-4.3-9.7-9.7l0,0V58.6h2v94.2c0,4.3,3.5,7.7,7.7,7.7l0,0h68c4.3,0,7.7-3.5,7.7-7.7l0,0
	V58.6h2v94.2C143.7,158.2,139.4,162.5,134,162.5L134,162.5"/>
<polygon class="st2" points="88.1,94.5 113.3,94.5 113.3,96.5 88.1,96.5 "/>
<path class="st2" d="M134,96.5h-10.4v-2H134c4.3,0,7.7-3.5,7.7-7.7V58.6c0-4.3-3.5-7.7-7.7-7.7h-21.5v-6.7c0-1.8-1.5-3.2-3.3-3.3
	H89.8c-1.8,0-3.3,1.5-3.3,3.3v6.6H66c-4.3,0-7.7,3.5-7.7,7.7v28.2c0,4.3,3.5,7.7,7.7,7.7h11.7v2H66c-5.4,0-9.7-4.3-9.7-9.7V58.6
	c0-5.4,4.3-9.7,9.7-9.7h18.6v-4.7c0-2.9,2.3-5.2,5.2-5.3h19.5c2.9,0,5.3,2.4,5.3,5.3v4.6H134c5.4,0,9.7,4.3,9.7,9.7v28.2
	C143.7,92.2,139.4,96.5,134,96.5"/>
<polygon class="st2" points="90.2,92.6 74.8,92.6 74.8,79.5 77,79.5 77,66.1 79,66.1 79,81.5 76.8,81.5 76.8,90.6 88.2,90.6 
	88.2,81.5 86.1,81.5 86.1,66.1 88.1,66.1 88.1,79.5 90.2,79.5 "/>
<polygon class="st2" points="78,79.5 87.3,79.5 87.3,81.5 78,81.5 "/>
<polygon class="st2" points="81.6,85.1 83.6,85.1 83.6,91.7 81.6,91.7 "/>
<path class="st2" d="M82.6,119.1c-3.1,0-5.6-2.5-5.6-5.6V91.4h2v22.1c0,2,1.6,3.6,3.6,3.6s3.6-1.6,3.6-3.6l0,0V91.4h2v22.1
	C88.1,116.6,85.7,119.1,82.6,119.1"/>
<polygon class="st2" points="126.3,92.6 110.8,92.6 110.8,79.5 113,79.5 113,66.1 115,66.1 115,81.5 112.8,81.5 112.8,90.6 
	124.3,90.6 124.3,81.5 122.2,81.5 122.2,66.1 124.2,66.1 124.2,79.5 126.3,79.5 "/>
<polygon class="st2" points="114,79.5 123.3,79.5 123.3,81.5 114,81.5 "/>
<polygon class="st2" points="117.6,85.1 119.6,85.1 119.6,91.7 117.6,91.7 "/>
<path class="st2" d="M118.6,119.1c-3.1,0-5.6-2.5-5.6-5.6V91.4h2v22.1c0,2,1.6,3.6,3.6,3.6s3.6-1.6,3.6-3.6l0,0V91.4h2v22.1
	C124.2,116.6,121.7,119.1,118.6,119.1"/>
<path class="st2" d="M72.5,126.5v7c0,0.6,0.4,1,1,1s1-0.4,1-1v-7H72.5z M73.5,136.5c-1.7,0-3-1.3-3-3v-9h6v9
	C76.5,135.2,75.2,136.5,73.5,136.5"/>
<polygon class="st2" points="71.5,128.5 75.5,128.5 75.5,130.5 71.5,130.5 "/>
<polygon class="st2" points="75.5,124.5 129.5,124.5 129.5,126.5 75.5,126.5 "/>
<polygon class="st2" points="159.5,108.5 161.5,108.5 161.5,116.5 159.5,116.5 "/>
<polygon class="st2" points="156.5,111.5 164.5,111.5 164.5,113.5 156.5,113.5 "/>
<polygon class="st2" points="39.5,38.5 41.5,38.5 41.5,46.5 39.5,46.5 "/>
<polygon class="st2" points="36.5,41.5 44.5,41.5 44.5,43.5 36.5,43.5 "/>
<path class="st2" d="M40.5,143.5c-1.1,0-2,0.9-2,2s0.9,2,2,2h60.8l4.7-2l-4.5-2H40.5z M101.7,149.5H40.5c-2.2,0-4-1.8-4-4s1.8-4,4-4
	h61.4l9.1,4L101.7,149.5z"/>
<polygon class="st2" points="43.5,142.3 45.5,142.3 45.5,148.3 43.5,148.3 "/>
<polygon class="st0" points="97.1,58 98.9,57 99.9,58.7 98.1,59.7 "/>
<polygon class="st0" points="103.1,68.4 104.9,67.4 105.9,69.1 104.1,70.1 "/>
<polygon class="st0" points="94.9,60.9 95.9,59.2 97.7,60.2 96.7,61.9 "/>
<polygon class="st0" points="105.3,66.9 106.3,65.2 108.1,66.2 107.1,67.9 "/>
<polygon class="st0" points="94.5,62.5 96.5,62.5 96.5,64.5 94.5,64.5 "/>
<polygon class="st0" points="106.5,62.5 108.5,62.5 108.5,64.5 106.5,64.5 "/>
<polygon class="st0" points="94.9,66.2 96.7,65.2 97.7,66.9 95.9,67.9 "/>
<polygon class="st0" points="105.3,60.2 107.1,59.2 108.1,60.9 106.3,61.9 "/>
<polygon class="st0" points="97.1,69.1 98.1,67.4 99.9,68.4 98.9,70.1 "/>
<polygon class="st0" points="103.1,58.7 104.1,57 105.9,58 104.9,59.7 "/>
<polygon class="st0" points="100.5,68.5 102.5,68.5 102.5,70.5 100.5,70.5 "/>
<polygon class="st0" points="100.5,56.5 102.5,56.5 102.5,58.5 100.5,58.5 "/>
</svg>
