<?xml version="1.0" encoding="utf-8"?>
<!-- Generator: Adobe Illustrator 22.0.1, SVG Export Plug-In . SVG Version: 6.00 Build 0)  -->
<svg version="1.1" id="Layer_1" xmlns="http://www.w3.org/2000/svg" xmlns:xlink="http://www.w3.org/1999/xlink" x="0px" y="0px"
	 viewBox="0 0 200 200" style="enable-background:new 0 0 200 200;" xml:space="preserve">
<style type="text/css">
	.st0{fill:#8D94B5;}
	.st1{fill:#191A4F;}
	.st2{fill:#B32B76;}
	.st3{fill:#009BBD;}
</style>
<title>Anti-slavery-icons</title>
<polygon class="st0" points="100.7,64.6 100.7,64.6 100.6,64.6 "/>
<polygon class="st0" points="74.7,96 126.7,96 126.7,102 74.7,102 "/>
<path class="st1" d="M117.7,89.2h-2V77.1c0-2.2-1.4-4.1-3.5-4.8l-8.6-3v-6h2v4.6l7.2,2.6c2.9,0.9,4.8,3.6,4.8,6.7L117.7,89.2
	L117.7,89.2z"/>
<path class="st1" d="M85.7,89.1h-2V77.3c0-3,1.9-5.7,4.8-6.6l7.2-2.7v-4.1c-1.9-1.5-3-3.8-3-6.2V55c0-4.4,3.6-8,8-8s8,3.6,8,8
	c0,0.1,0,0.2,0,0.3v2.3c0,4.4-3.6,8-8,8v-2c3.3,0,6-2.7,6-6v-2.4c0.1-3.1-2.2-5.8-5.2-6.2c-3.3-0.4-6.3,1.9-6.7,5.2l0,0
	c0,0.2,0,0.5-0.1,0.8v2.6c0,2,1,3.8,2.6,4.9l0.4,0.3v6.5l-8.5,3.2c-2.1,0.7-3.4,2.6-3.4,4.8v11.8H85.7z"/>
<path class="st2" d="M44.7,142h28c2.2,0,4,1.8,4,4v18h-36v-18C40.7,143.8,42.5,142,44.7,142"/>
<path class="st1" d="M43.7,137.3h-2c0-3,1.9-5.7,4.8-6.6l7.2-2.7v-4.1c-1.9-1.5-3-3.8-3-6.2V115c0-4.4,3.6-8,8-8c0.3,0,0.7,0,1,0.1
	c4.1,0.6,7.1,4.1,7,8.2v2.4c0,2.4-1.1,4.7-3,6.2v4l7.2,2.6c2.9,0.9,4.8,3.6,4.8,6.7h-2c0-2.2-1.4-4.1-3.5-4.8l-8.5-3v-6.5l0.4-0.3
	c1.6-1.1,2.6-3,2.6-4.9v-2.4c0.1-3.1-2.2-5.8-5.2-6.2c-3.3-0.4-6.3,1.9-6.7,5.2l0,0c0,0.3,0,0.5,0,0.8v2.6c0,2,1,3.8,2.6,4.9
	l0.4,0.3v6.5l-8.5,3.2C45.1,133.2,43.7,135.1,43.7,137.3"/>
<path class="st1" d="M78.7,164h-2v-23c0-1.7-1.3-3-3-3h-30c-1.7,0-3,1.3-3,3v23h-2v-23c0-2.8,2.2-5,5-5h30c2.8,0,5,2.2,5,5V164z"/>
<path class="st2" d="M86.7,142h28c2.2,0,4,1.8,4,4v18h-36v-18C82.7,143.8,84.5,142,86.7,142"/>
<path class="st1" d="M85.7,137.3h-2c0-3,1.9-5.7,4.8-6.6l7.2-2.7v-4.1c-1.9-1.5-3-3.8-3-6.2V115c0-4.4,3.6-8,8-8c0.3,0,0.7,0,1,0.1
	c4.1,0.6,7.1,4.1,7,8.2v2.4c0,2.4-1.1,4.7-3,6.2v4l7.2,2.6c2.9,0.9,4.9,3.6,4.9,6.7h-2c0-2.2-1.4-4.1-3.5-4.8l-8.5-3v-6.5l0.4-0.3
	c1.6-1.1,2.6-3,2.6-4.9v-2.4c0.1-3.1-2.2-5.8-5.2-6.2c-3.3-0.4-6.3,1.9-6.7,5.2l0,0c0,0.3,0,0.5,0,0.8v2.6c0,2,1,3.8,2.6,4.9
	l0.4,0.3v6.5l-8.5,3.2C87.1,133.2,85.8,135.1,85.7,137.3"/>
<path class="st1" d="M120.7,164h-2v-23c0-1.7-1.3-3-3-3h-30c-1.7,0-3,1.3-3,3v23h-2v-23c0-2.8,2.2-5,5-5h30c2.8,0,5,2.2,5,5V164z"/>
<path class="st2" d="M128.7,142h28c2.2,0,4,1.8,4,4v18h-36v-18C124.7,143.8,126.5,142,128.7,142"/>
<path class="st1" d="M127.7,137.3h-2c0-3,1.9-5.7,4.8-6.6l7.2-2.7v-4.1c-1.9-1.5-3-3.8-3-6.2V115c0-4.4,3.6-8,8-8c0.3,0,0.7,0,1,0.1
	c4.1,0.6,7.1,4.1,7,8.2v2.4c0,2.4-1.1,4.7-3,6.2v4l7.2,2.6c2.9,0.9,4.8,3.6,4.9,6.7h-2c0-2.2-1.4-4.1-3.5-4.8l-8.6-3v-6.5l0.4-0.3
	c1.6-1.1,2.6-3,2.6-4.9v-2.4c0.1-3.1-2.2-5.8-5.2-6.2c-3.3-0.4-6.3,1.9-6.7,5.2l0,0c0,0.2,0,0.5,0,0.8v2.6c0,2,1,3.8,2.6,4.9
	l0.4,0.3v6.5l-8.5,3.2C129.2,133.2,127.8,135.1,127.7,137.3"/>
<path class="st1" d="M162.7,164h-2v-23c0-1.7-1.3-3-3-3h-30c-1.7,0-3,1.3-3,3v23h-2v-23c0-2.8,2.2-5,5-5h30c2.8,0,5,2.2,5,5V164z"/>
<path class="st1" d="M73.7,94h54v-4h-54V94z M129.7,96h-58v-8h58V96z"/>
<polygon class="st1" points="73.7,95 75.7,95 75.7,124 73.7,124 "/>
<polygon class="st1" points="125.7,95 127.7,95 127.7,124 125.7,124 "/>
<path class="st3" d="M50.7,36v60h19V86h12v-8.7c0-3.8,2.4-7.3,6.1-8.5l5.9-2.2v-1.8c-1.9-1.9-3-4.4-3-7.1V55c0-5.5,4.5-10,10-10
	c0.4,0,0.8,0,1.2,0.1c5.1,0.7,8.8,5.1,8.8,10.2v2.3c0,2.7-1.1,5.3-3,7.1v1.7l5.8,2.1c3.7,1.2,6.2,4.7,6.2,8.6V86h12v10h19V36H50.7z"
	/>
<polygon class="st1" points="125.7,126 127.7,126 127.7,128 125.7,128 "/>
<polygon class="st1" points="73.7,126 75.7,126 75.7,128 73.7,128 "/>
<path class="st1" d="M39,67h16.9l4.7,4v-4h15.6l0.4-0.4V42.4L76.2,42H39l-0.4,0.4v24.1L39,67z M62.6,74H61l-5.8-5h-17l-1.6-1.6V41.6
	l1.5-1.6H77l1.6,1.6v25.8L77,69H62.6V74L62.6,74z"/>
<polygon class="st1" points="48.6,51 66.6,51 66.6,53 48.6,53 "/>
<polygon class="st1" points="48.6,55 66.6,55 66.6,57 48.6,57 "/>
<path class="st1" d="M125.1,75h15.6v4.1l4.7-4.1h16.9l0.4-0.4V50.4l-0.4-0.4h-37.2l-0.4,0.4v24.2L125.1,75L125.1,75z M140.4,82h-1.7
	v-5h-14.4l-1.6-1.6V49.6l1.6-1.6h38.9l1.6,1.6v25.8l-1.6,1.6h-17L140.4,82L140.4,82z"/>
<polygon class="st1" points="134.7,59 152.7,59 152.7,61 134.7,61 "/>
<polygon class="st1" points="134.7,63 152.7,63 152.7,65 134.7,65 "/>
<polygon class="st1" points="39.7,110 41.7,110 41.7,118 39.7,118 "/>
<polygon class="st1" points="36.7,113 44.7,113 44.7,115 36.7,115 "/>
<path class="st2" d="M66.8,101c1.1,0,2,0.9,2,2s-0.9,2-2,2s-2-0.9-2-2S65.6,101,66.8,101"/>
<path class="st3" d="M160.8,87c-1.1,0-2,0.9-2,2s0.9,2,2,2s2-0.9,2-2S161.9,87,160.8,87 M160.8,93c-2.2,0-4-1.8-4-4s1.8-4,4-4
	s4,1.8,4,4S163,93,160.8,93"/>
<path class="st0" d="M43.7,81c-1.1,0-2,0.9-2,2s0.9,2,2,2s2-0.9,2-2S44.8,81,43.7,81 M43.7,87c-2.2,0-4-1.8-4-4s1.8-4,4-4s4,1.8,4,4
	S45.9,87,43.7,87"/>
<path class="st0" d="M158.8,112c1.1,0,2,0.9,2,2s-0.9,2-2,2s-2-0.9-2-2S157.7,112,158.8,112"/>
</svg>
